<svg width="512" height="512" viewBox="0 0 512 512" fill="none" xmlns="http://www.w3.org/2000/svg">
<path d="M264.435 46.3877C287.831 28.9112 319.918 21.0965 348.629 22.7061C376.968 24.2948 404.968 35.3738 416.669 59.1582C422.467 70.9441 423.297 83.6766 422.401 95.9668C421.52 108.054 418.82 120.972 416.897 132.589C412.879 156.868 411.938 177.216 427.375 193.677H427.374C436.245 203.135 444.248 209.914 451.513 215.771C458.612 221.494 465.663 226.826 471.621 232.788C484.431 245.607 492.261 261.282 495.743 292.643C499.283 324.527 491.898 356.146 478.552 380.926C465.36 405.42 445.462 424.721 422.894 429.381C411.986 431.633 400.207 431.129 388.506 429.567C376.806 428.006 364.514 425.281 352.683 422.771C328.264 417.59 306.1 413.502 288.106 418.339C270.683 423.023 263.608 432.863 251.467 446.203C239.106 459.785 223.321 474.308 189.691 482.722C157.037 490.891 122.596 491.601 95.3174 485.259C68.8569 479.106 45.2757 465.168 42.1055 440.979C41.1224 433.479 37.5496 425.989 32.7197 417.413C28.1572 409.312 22.188 399.826 18.4775 390.09C14.6135 379.95 12.7598 368.594 16.6553 356.082C20.4861 343.778 29.5289 331.489 45.1162 318.597C74.3375 294.428 81.2348 279.882 81.9326 267.896C82.3035 261.525 80.9972 255.055 78.8301 246.923C76.7329 239.053 73.7879 229.513 71.8828 218.551C68.0955 196.759 69.1363 175.647 79.5029 159.723C90.209 143.277 109.341 134.564 136.553 134.538C172.096 133.97 192.53 120.796 209.596 103.719C218.443 94.8652 226.129 85.239 234.911 75.0791C243.517 65.1228 252.911 54.9957 264.435 46.3877Z" stroke="#FF9500" stroke-width="17"/>
<path d="M270.718 54.7998C291.814 39.0409 321.357 31.6946 348.041 33.1904C374.813 34.6913 398.012 45.0189 407.248 63.793C411.879 73.205 412.76 83.8008 411.929 95.2031C411.094 106.653 408.568 118.611 406.538 130.874C402.519 155.156 400.493 180.362 419.716 200.859C429.056 210.819 437.476 217.942 444.923 223.945C452.408 229.98 458.759 234.771 464.194 240.21C474.856 250.879 482.006 264.063 485.308 293.802C488.596 323.417 481.716 352.908 469.308 375.947C456.863 399.054 439.064 415.321 420.77 419.099C411.534 421.006 401.098 420.656 389.896 419.16C378.692 417.665 366.878 415.048 354.862 412.499C331.009 407.438 306.249 402.589 285.38 408.199C264.377 413.846 255.176 426.528 243.701 439.136C232.278 451.687 218.195 464.767 187.143 472.535C155.86 480.361 123.124 480.944 97.6953 475.031C72.0744 469.074 54.7683 456.794 52.5166 439.615C51.2492 429.945 46.7509 420.927 41.8691 412.26C36.9246 403.481 31.6311 395.121 28.2891 386.352C24.9832 377.677 23.6866 368.819 26.6807 359.203C29.69 349.538 37.1165 338.839 51.8076 326.688C81.6497 302.005 91.4551 284.994 92.415 268.506C92.8898 260.35 91.183 252.499 88.9766 244.219C86.7536 235.877 84.0273 227.109 82.2275 216.753C78.6226 196.011 80.0639 178.107 88.3027 165.451C96.4582 152.923 111.618 145.038 136.673 145.038H136.704C175.547 144.421 198.464 129.712 217.022 111.142C226.228 101.93 234.418 91.7047 242.854 81.9453C251.332 72.1379 260.128 62.71 270.718 54.7998Z" fill="white" stroke="black" stroke-width="4"/>
<path d="M304.873 207.701C298.449 202.505 290.03 200.885 281.776 200.512C236.725 198.479 217.564 207.182 203.029 225.674C187.219 245.786 187.219 287.84 213.366 301.248C239.512 314.656 282.683 317.704 301.533 295.763C320.382 273.822 320.99 255.538 319.166 232.987C318.243 221.57 311.587 213.131 304.873 207.701Z" fill="#FFD900" stroke="black" stroke-width="4"/>
</svg>
