<?xml version="1.0" encoding="UTF-8" standalone="no"?>
<!-- Created with Inkscape (http://www.inkscape.org/) -->

<svg
   xmlns:dc="http://purl.org/dc/elements/1.1/"
   xmlns:cc="http://creativecommons.org/ns#"
   xmlns:rdf="http://www.w3.org/1999/02/22-rdf-syntax-ns#"
   xmlns:svg="http://www.w3.org/2000/svg"
   xmlns="http://www.w3.org/2000/svg"
   xmlns:sodipodi="http://sodipodi.sourceforge.net/DTD/sodipodi-0.dtd"
   xmlns:inkscape="http://www.inkscape.org/namespaces/inkscape"
   width="46.988235mm"
   height="46.988235mm"
   viewBox="0 0 46.988235 46.988235"
   version="1.1"
   id="svg8"
   inkscape:version="0.92.4 (5da689c313, 2019-01-14)"
   sodipodi:docname="Rodalies de Catalunya símbol.svg">
  <defs
     id="defs2">
    <clipPath
       id="clipPath833"
       clipPathUnits="userSpaceOnUse">
      <path
         inkscape:connector-curvature="0"
         id="path831"
         d="M 0,841.89 H 595.276 V 0 H 0 Z" />
    </clipPath>
  </defs>
  <sodipodi:namedview
     id="base"
     pagecolor="#ffffff"
     bordercolor="#666666"
     borderopacity="1.0"
     inkscape:pageopacity="0.0"
     inkscape:pageshadow="2"
     inkscape:zoom="0.98994949"
     inkscape:cx="-176.89188"
     inkscape:cy="-36.192251"
     inkscape:document-units="mm"
     inkscape:current-layer="g829"
     showgrid="false"
     fit-margin-top="0"
     fit-margin-left="0"
     fit-margin-right="0"
     fit-margin-bottom="0"
     inkscape:window-width="1920"
     inkscape:window-height="1017"
     inkscape:window-x="-8"
     inkscape:window-y="-8"
     inkscape:window-maximized="1" />
  <metadata
     id="metadata5">
    <rdf:RDF>
      <cc:Work
         rdf:about="">
        <dc:format>image/svg+xml</dc:format>
        <dc:type
           rdf:resource="http://purl.org/dc/dcmitype/StillImage" />
        <dc:title></dc:title>
      </cc:Work>
    </rdf:RDF>
  </metadata>
  <g
     inkscape:label="Capa 1"
     inkscape:groupmode="layer"
     id="layer1"
     transform="translate(-284.27565,-209.83959)">
    <g
       id="g827"
       transform="matrix(0.35277777,0,0,-0.35277777,267.98853,471.60257)">
      <g
         clip-path="url(#clipPath833)"
         id="g829"
         transform="translate(-150.76527,22.728433)">
        <g
           id="g1309"
           transform="translate(-89.398506,98.489875)">
          <path
             d="M 286.332,620.787 H 419.527 V 487.592 H 286.332 Z"
             style="fill:#f47216;fill-opacity:1;fill-rule:nonzero;stroke:none"
             id="path1013"
             inkscape:connector-curvature="0" />
          <g
             id="g1015"
             transform="translate(342.0907,520.0658)">
            <path
               d="M 0,0 H 23.918 V 27.072 H 36.64 c 9.461,0 10.113,-7.719 10.765,-15.112 C 47.731,7.937 48.166,3.913 49.362,0 H 73.283 C 71.108,3.588 71,12.829 70.673,16.635 69.803,26.313 65.78,33.488 59.257,35.988 67.194,38.925 70.89,47.406 70.89,55.451 70.89,70.13 59.147,77.633 45.556,77.633 H 0 Z m 24.463,59.148 h 11.201 c 9.133,0 11.85,-2.826 11.85,-7.719 0,-6.96 -6.088,-7.721 -10.546,-7.721 H 24.463 Z"
               style="fill:#ffffff;fill-opacity:1;fill-rule:nonzero;stroke:none"
               id="path1017"
               inkscape:connector-curvature="0" />
          </g>
        </g>
      </g>
    </g>
  </g>
</svg>